<?xml version="1.0" encoding="UTF-8" standalone="no"?>
<svg
  width="208.258"
  height="29.257999"
  viewBox="0 0 208.25799 29.258001"
  fill="none"
  version="1.1"
  id="svg3"
  sodipodi:docname="logo.svg"
  inkscape:version="1.3.2 (091e20e, 2023-11-25, custom)"
  xmlns:inkscape="http://www.inkscape.org/namespaces/inkscape"
  xmlns:sodipodi="http://sodipodi.sourceforge.net/DTD/sodipodi-0.dtd"
  xmlns="http://www.w3.org/2000/svg"
>
  <sodipodi:namedview
    id="namedview3"
    pagecolor="#ffffff"
    bordercolor="#000000"
    borderopacity="0.25"
    inkscape:showpageshadow="2"
    inkscape:pageopacity="0.0"
    inkscape:pagecheckerboard="true"
    inkscape:deskcolor="#d1d1d1"
    inkscape:zoom="4.9375"
    inkscape:cx="98.227848"
    inkscape:cy="4.3544304"
    inkscape:window-width="1920"
    inkscape:window-height="1129"
    inkscape:window-x="-2"
    inkscape:window-y="-3"
    inkscape:window-maximized="1"
    inkscape:current-layer="g3"/>
  <g
    clip-path="url(#clip0_5064_75142)"
    id="g3">
    <mask
      id="mask0_5064_75142"
      maskUnits="userSpaceOnUse"
      x="0"
      y="0"
      width="272"
      height="41">
      <path
        d="M 271.314,0.5 H 0.5 v 39.9162 h 270.814 z"
        fill="#ffffff"
        id="path1"/>
    </mask>
    <g
      mask="url(#mask0_5064_75142)"
      id="g2"
      transform="translate(-21.468354,-5.3924051)"
      style="fill:#1a1a1a">
      <path
        fill-rule="evenodd"
        clip-rule="evenodd"
        d="m 220.21614,16.2999 h -3.775 v -2.5826 h 3.775 l 0.017,-7.99324 h 3.857 v 7.99324 h 5.35 v 2.5826 h -5.35 v 11.5712 c 0,0.8609 0.161,1.5044 0.483,1.9306 0.321,0.4262 0.735,0.7103 1.242,0.8524 0.506,0.142 1.043,0.2132 1.61,0.2132 0.425,0 0.773,-0.0194 1.046,-0.0582 0.272,-0.0389 0.49,-0.0712 0.653,-0.0968 l 0.785,2.7376 c -0.262,0.0777 -0.627,0.1571 -1.095,0.2389 -0.469,0.0817 -1.062,0.1229 -1.782,0.1229 -1.089,0 -2.155,-0.1853 -3.195,-0.5556 -1.041,-0.37 -1.901,-0.9341 -2.582,-1.6914 -0.681,-0.7577 -1.022,-1.7136 -1.022,-2.8671 z m -10.3,9.1509 V 13.7352 h 3.858 v 19.8183 h -3.858 v -3.3547 h -0.261 c -0.588,1.0064 -1.504,1.8603 -2.746,2.5611 -1.242,0.7012 -2.811,1.0518 -4.707,1.0518 -1.569,0 -2.964,-0.2732 -4.184,-0.8194 -1.221,-0.5462 -2.179,-1.3721 -2.877,-2.4774 -0.697,-1.1052 -1.046,-2.5008 -1.046,-4.1867 v -12.593 h 3.857 v 12.3865 c 0,1.445 0.515,2.5977 1.545,3.458 1.03,0.86 2.345,1.29 3.947,1.29 0.959,0 1.937,-0.1936 2.934,-0.5806 0.997,-0.3871 1.836,-0.9806 2.517,-1.7803 0.681,-0.8 1.021,-1.8194 1.021,-3.058 z m -31.074,8.5174 c -2.266,0 -4.252,-0.4203 -5.957,-1.2612 -1.706,-0.8412 -3.035,-2.0173 -3.988,-3.5294 -0.954,-1.5121 -1.431,-3.2788 -1.431,-5.3003 0,-2.0385 0.477,-3.8182 1.431,-5.3385 0.953,-1.5206 2.282,-2.7012 3.988,-3.5421 1.705,-0.8409 3.691,-1.2615 5.957,-1.2615 2.267,0 4.252,0.4206 5.958,1.2615 1.705,0.8409 3.034,2.0215 3.988,3.5421 0.953,1.5203 1.43,3.3 1.43,5.3385 0,2.0215 -0.477,3.7882 -1.43,5.3003 -0.954,1.5121 -2.283,2.6882 -3.988,3.5294 -1.706,0.8409 -3.691,1.2612 -5.958,1.2612 z m 0,-2.7012 c 1.722,0 3.138,-0.3438 4.25,-1.0321 1.111,-0.6879 1.934,-1.5926 2.468,-2.7138 0.534,-1.1212 0.801,-2.3359 0.801,-3.6438 0,-1.3082 -0.267,-2.5271 -0.801,-3.6568 -0.534,-1.1297 -1.357,-2.0429 -2.468,-2.7394 -1.112,-0.6965 -2.528,-1.0447 -4.25,-1.0447 -1.722,0 -3.138,0.3482 -4.249,1.0447 -1.112,0.6965 -1.935,1.6097 -2.468,2.7394 -0.534,1.1297 -0.801,2.3486 -0.801,3.6568 0,1.3079 0.267,2.5226 0.801,3.6438 0.533,1.1212 1.356,2.0259 2.468,2.7138 1.111,0.6883 2.527,1.0321 4.249,1.0321 z m -37.123,2.2927 V 5.72406 h 3.858 V 17.0641 h 0.326 c 0.284,-0.3406 0.679,-0.7768 1.185,-1.3089 0.507,-0.532 1.237,-1.0085 2.19,-1.43 0.954,-0.4211 2.248,-0.6317 3.882,-0.6317 2.114,0 3.977,0.4126 5.59,1.2382 1.613,0.8256 2.871,1.9962 3.776,3.5112 0.904,1.515 1.356,3.3026 1.356,5.3623 0,2.0768 -0.452,3.875 -1.356,5.3945 -0.905,1.5191 -2.158,2.6938 -3.76,3.5238 -1.601,0.8297 -3.448,1.2447 -5.54,1.2447 -1.613,0 -2.904,-0.2106 -3.874,-0.6321 -0.97,-0.4212 -1.716,-0.902 -2.239,-1.4426 -0.523,-0.5406 -0.926,-0.9894 -1.21,-1.3471 h -0.457 v 3.0133 z m 3.792,-9.8056 c 0,1.4811 0.278,2.7856 0.834,3.9132 0.555,1.1279 1.367,2.0088 2.435,2.6429 1.068,0.6342 2.375,0.9512 3.923,0.9512 1.612,0 2.961,-0.3341 4.045,-1.002 1.084,-0.6683 1.901,-1.5706 2.452,-2.7068 0.55,-1.1365 0.825,-2.4024 0.825,-3.7985 0,-1.3789 -0.27,-2.6236 -0.809,-3.7344 -0.539,-1.1109 -1.351,-1.9918 -2.435,-2.643 -1.085,-0.6512 -2.444,-0.9768 -4.078,-0.9768 -1.569,0 -2.888,0.3086 -3.956,0.9259 -1.067,0.6171 -1.874,1.4768 -2.419,2.5789 -0.545,1.1023 -0.817,2.3855 -0.817,3.8494 z m -19.402,10.2664 c -1.591,0 -3.035,-0.2358 -4.332,-0.7073 -1.296,-0.4715 -2.326,-1.1553 -3.089,-2.0515 -0.762,-0.8962 -1.144,-1.9812 -1.144,-3.2556 0,-1.1212 0.283,-2.0323 0.85,-2.7329 0.567,-0.7009 1.324,-1.2509 2.272,-1.6503 0.948,-0.3991 1.997,-0.6985 3.146,-0.8982 1.15,-0.1998 2.307,-0.3589 3.473,-0.4777 1.526,-0.1529 2.765,-0.2697 3.719,-0.3506 0.953,-0.0806 1.65,-0.2188 2.092,-0.4141 0.441,-0.1953 0.662,-0.535 0.662,-1.0194 v -0.1018 c 0,-1.2573 -0.439,-2.2341 -1.316,-2.9306 -0.877,-0.6967 -2.204,-1.045 -3.98,-1.045 -1.841,0 -3.285,0.3144 -4.331,0.943 -1.046,0.6285 -1.782,1.2997 -2.206,2.0132 l -3.662,-1.0194 c 0.654,-1.1891 1.529,-2.1174 2.624,-2.7841 1.095,-0.6668 2.293,-1.1341 3.595,-1.4015 1.303,-0.2676 2.585,-0.4015 3.849,-0.4015 0.807,0 1.736,0.0744 2.787,0.223 1.052,0.1488 2.07,0.4523 3.057,0.9112 0.986,0.4585 1.806,1.1508 2.459,2.0767 0.654,0.9259 0.981,2.1662 0.981,3.7209 v 12.8947 h -3.857 v -2.6503 h -0.196 c -0.262,0.4247 -0.698,0.8791 -1.308,1.3635 -0.61,0.4842 -1.422,0.8962 -2.435,1.2359 -1.014,0.3397 -2.25,0.5097 -3.71,0.5097 z m 0.588,-2.7014 c 1.525,0 2.814,-0.2336 3.865,-0.7006 1.052,-0.4674 1.847,-1.0706 2.387,-1.8094 0.539,-0.7392 0.809,-1.5165 0.809,-2.3318 v -2.7524 c -0.164,0.153 -0.521,0.2909 -1.071,0.4142 -0.55,0.1232 -1.182,0.2294 -1.896,0.3185 -0.713,0.0891 -1.405,0.1656 -2.076,0.2294 -0.67,0.0635 -1.212,0.1168 -1.626,0.1591 -1.002,0.1021 -1.937,0.2656 -2.803,0.4906 -0.866,0.2253 -1.563,0.5609 -2.092,1.0068 -0.528,0.4459 -0.793,1.0512 -0.793,1.8156 0,1.045 0.499,1.8329 1.496,2.3638 0.997,0.5309 2.264,0.7962 3.8,0.7962 z m -25.718,-4.3721 -2.062001,2.0956 v 4.8897 h -6.996 V 5.72406 h 6.996 V 20.9544 l 7.143001,-6.9486 h 8.285 l -8.285,8.5294 8.984,11.3971 h -8.468 z M 81.317139,5.72406 h 6.996 V 33.9323 h -6.996 z m -13.587,28.53914 c -2.136,0 -4.062,-0.4412 -5.781,-1.3235 -1.718,-0.8824 -3.062,-2.108 -4.0317,-3.6765 -0.9697,-1.5685 -1.4546,-3.3456 -1.4546,-5.3309 0,-1.9609 0.4849,-3.7256 1.4546,-5.2941 0.9697,-1.5686 2.3077,-2.788 4.0137,-3.658 1.706,-0.8703 3.639,-1.3053 5.799,-1.3053 2.16,0 4.099,0.435 5.818,1.3053 1.718,0.87 3.056,2.0833 4.013,3.6397 0.957,1.5562 1.436,3.3271 1.436,5.3124 0,1.9853 -0.479,3.7624 -1.436,5.3309 -0.957,1.5685 -2.295,2.7941 -4.013,3.6765 -1.719,0.8823 -3.658,1.3235 -5.818,1.3235 z m 0,-5.5515 c 1.227,0 2.234,-0.4226 3.019,-1.2682 0.786,-0.8456 1.178,-2.0162 1.178,-3.5112 0,-1.4706 -0.392,-2.6226 -1.178,-3.4559 -0.785,-0.8332 -1.792,-1.25 -3.019,-1.25 -1.227,0 -2.234,0.4168 -3.019,1.25 -0.786,0.8333 -1.179,1.9853 -1.179,3.4559 0,1.495 0.393,2.6656 1.179,3.5112 0.785,0.8456 1.792,1.2682 3.019,1.2682 z m -10.6572,-14.7059 -7.1064,19.9265 h -6.775 l -3.7557,-10.8456 -3.903,10.8456 h -6.775 l -7.1064,-19.9265 h 6.6277 l 4.0871,12.0589 4.2344,-12.0589 h 5.9649 l 4.124,12.1691 4.2343,-12.1691 z"
        fill="white"
        id="path2"
        style="fill:#1a1a1a"
        sodipodi:nodetypes="ccccccccccsccsccccsccccscccccccsccsccscsccssccsccsccsccsscssscsccsccscccccccsscsccscsccccsccsccsccsccssccsccccccsscsccccsscccsccccccssccscccccccsssccccccccccccccccccscssccsccsscsscscscscscccccccccccccc"/>
    </g>
  </g>
  <defs
    id="defs3">
    <clipPath
      id="clip0_5064_75142">
      <rect
        width="271"
        height="40"
        fill="#ffffff"
        transform="translate(0.5,0.5)"
        id="rect3"
        x="0"
        y="0"/>
    </clipPath>
  </defs>
</svg>
