<svg width="24" height="24" viewBox="0 0 24 24" xmlns="http://www.w3.org/2000/svg">
<path d="M3.96456 20.7451C3.19523 20.7451 2.5414 20.4759 2.00306 19.9374C1.46456 19.3989 1.19531 18.745 1.19531 17.9759C1.19531 17.2067 1.46456 16.5529 2.00306 16.0144C2.5414 15.4759 3.19523 15.2066 3.96456 15.2066C4.12556 15.2066 4.28215 15.2207 4.43431 15.2489C4.58648 15.2772 4.73565 15.3176 4.88181 15.3701L9.16256 9.48738C8.87923 9.15672 8.6584 8.78088 8.50006 8.35988C8.34173 7.93888 8.26256 7.49355 8.26256 7.02388C8.26256 5.98172 8.63023 5.09297 9.36556 4.35763C10.1007 3.62247 10.9895 3.25488 12.0318 3.25488C13.0741 3.25488 13.9629 3.62247 14.6981 4.35763C15.4334 5.09297 15.8011 5.98172 15.8011 7.02388C15.8011 7.49355 15.7177 7.93888 15.5511 8.35988C15.3844 8.78088 15.1594 9.15672 14.8761 9.48738L19.1723 15.3799C19.3183 15.3272 19.4685 15.2852 19.6228 15.2539C19.777 15.2224 19.9357 15.2066 20.0991 15.2066C20.8684 15.2066 21.5222 15.4759 22.0606 16.0144C22.5991 16.5529 22.8683 17.2067 22.8683 17.9759C22.8683 18.745 22.5991 19.3989 22.0606 19.9374C21.5222 20.4759 20.8684 20.7451 20.0991 20.7451C19.3299 20.7451 18.6761 20.4759 18.1376 19.9374C17.5991 19.3989 17.3298 18.745 17.3298 17.9759C17.3298 17.6464 17.3853 17.3342 17.4963 17.0394C17.6071 16.7445 17.7587 16.4805 17.9511 16.2471L13.6896 10.3836C13.5486 10.4681 13.4036 10.5348 13.2548 10.5836C13.1061 10.6323 12.9485 10.6745 12.7818 10.7101V15.3144C13.3651 15.4695 13.8475 15.7926 14.2288 16.2836C14.6103 16.7746 14.8011 17.3355 14.8011 17.9664C14.8011 18.7355 14.5318 19.3894 13.9933 19.9279C13.4548 20.4662 12.801 20.7354 12.0318 20.7354C11.2626 20.7354 10.6088 20.4662 10.0703 19.9279C9.53181 19.3894 9.26256 18.7355 9.26256 17.9664C9.26256 17.3355 9.45331 16.7772 9.83481 16.2914C10.2161 15.8054 10.6985 15.4797 11.2818 15.3144V10.7101C11.1151 10.6745 10.9575 10.6323 10.8088 10.5836C10.66 10.5348 10.5151 10.4681 10.3741 10.3836L6.10281 16.2471C6.29515 16.4805 6.4484 16.7445 6.56256 17.0394C6.67673 17.3342 6.73381 17.6464 6.73381 17.9759C6.73381 18.745 6.46456 19.3989 5.92606 19.9374C5.38756 20.4759 4.73373 20.7451 3.96456 20.7451ZM3.96456 19.2451C4.3184 19.2451 4.6184 19.122 4.86456 18.8759C5.11073 18.6297 5.23381 18.3297 5.23381 17.9759C5.23381 17.622 5.11073 17.322 4.86456 17.0759C4.6184 16.8297 4.3184 16.7066 3.96456 16.7066C3.61073 16.7066 3.31073 16.8297 3.06456 17.0759C2.8184 17.322 2.69531 17.622 2.69531 17.9759C2.69531 18.3297 2.8184 18.6297 3.06456 18.8759C3.31073 19.122 3.61073 19.2451 3.96456 19.2451ZM12.0318 19.2356C12.3856 19.2356 12.6856 19.1125 12.9318 18.8664C13.178 18.6202 13.3011 18.3202 13.3011 17.9664C13.3011 17.6124 13.178 17.3124 12.9318 17.0664C12.6856 16.8202 12.3856 16.6971 12.0318 16.6971C11.678 16.6971 11.378 16.8202 11.1318 17.0664C10.8856 17.3124 10.7626 17.6124 10.7626 17.9664C10.7626 18.3202 10.8856 18.6202 11.1318 18.8664C11.378 19.1125 11.678 19.2356 12.0318 19.2356ZM20.0991 19.2451C20.4529 19.2451 20.7529 19.122 20.9991 18.8759C21.2452 18.6297 21.3683 18.3297 21.3683 17.9759C21.3683 17.622 21.2452 17.322 20.9991 17.0759C20.7529 16.8297 20.4529 16.7066 20.0991 16.7066C19.7452 16.7066 19.4452 16.8297 19.1991 17.0759C18.9529 17.322 18.8298 17.622 18.8298 17.9759C18.8298 18.3297 18.9529 18.6297 19.1991 18.8759C19.4452 19.122 19.7452 19.2451 20.0991 19.2451ZM12.0318 9.29313C12.6558 9.29313 13.1901 9.07097 13.6346 8.62663C14.0789 8.1823 14.3011 7.64805 14.3011 7.02388C14.3011 6.39988 14.0789 5.86572 13.6346 5.42138C13.1901 4.97688 12.6558 4.75463 12.0318 4.75463C11.4078 4.75463 10.8736 4.97688 10.4291 5.42138C9.98473 5.86572 9.76256 6.39988 9.76256 7.02388C9.76256 7.64805 9.98473 8.1823 10.4291 8.62663C10.8736 9.07097 11.4078 9.29313 12.0318 9.29313Z"/>
</svg>
