<svg width="24" height="24" viewBox="0 0 24 24" fill="none" xmlns="http://www.w3.org/2000/svg">
<g clip-path="url(#clip0_5570_86309)">
<path d="M9.57533 4.52661C7.97668 5.0812 6.59801 6.13382 5.64182 7.52987C4.68563 8.92591 4.20232 10.5918 4.26288 12.2828C4.32345 13.9738 4.92469 15.6009 5.9783 16.925C7.03191 18.249 8.48235 19.2003 10.1166 19.6391C11.4415 19.981 12.8296 19.996 14.1616 19.6829C15.3682 19.4118 16.4838 18.8321 17.3991 18.0004C18.3517 17.1083 19.0431 15.9735 19.3991 14.7179C19.786 13.3524 19.8548 11.9165 19.6003 10.5204H12.1603V13.6066H16.4691C16.383 14.0988 16.1984 14.5687 15.9265 14.9879C15.6546 15.4072 15.3009 15.7672 14.8866 16.0466C14.3604 16.3947 13.7673 16.6288 13.1453 16.7341C12.5215 16.8501 11.8817 16.8501 11.2578 16.7341C10.6256 16.6034 10.0275 16.3424 9.50158 15.9679C8.65677 15.3698 8.02243 14.5203 7.68908 13.5404C7.3501 12.5421 7.3501 11.4599 7.68908 10.4616C7.92636 9.76188 8.31862 9.12478 8.83658 8.59786C9.42932 7.9838 10.1797 7.54486 11.0055 7.32921C11.8313 7.11356 12.7005 7.12953 13.5178 7.37536C14.1563 7.57135 14.7401 7.91379 15.2228 8.37536C15.7087 7.89203 16.1937 7.40745 16.6778 6.92161C16.9278 6.66036 17.2003 6.41161 17.4466 6.14411C16.7098 5.45846 15.8449 4.92494 14.9016 4.57411C13.1837 3.95035 11.3041 3.93359 9.57533 4.52661Z" fill="white"/>
<path d="M9.5725 4.52624C11.3011 3.93282 13.1807 3.94914 14.8987 4.57249C15.8423 4.9257 16.7067 5.46179 17.4425 6.14999C17.1925 6.41749 16.9287 6.66749 16.6737 6.92749C16.1887 7.41166 15.7042 7.89416 15.22 8.37499C14.7373 7.91342 14.1535 7.57098 13.515 7.37499C12.698 7.1283 11.8288 7.1114 11.0028 7.32617C10.1768 7.54094 9.42589 7.97907 8.8325 8.59249C8.31454 9.11941 7.92228 9.75652 7.685 10.4562L5.09375 8.44999C6.02126 6.6107 7.62719 5.20377 9.5725 4.52624Z" fill="#E33629"/>
<path d="M4.4089 10.4377C4.54818 9.74744 4.77941 9.07898 5.0964 8.4502L7.68765 10.4614C7.34867 11.4597 7.34867 12.5419 7.68765 13.5402C6.82432 14.2069 5.96057 14.8769 5.0964 15.5502C4.30284 13.9706 4.06082 12.1708 4.4089 10.4377Z" fill="#F8BD00"/>
<path d="M12.1568 10.5186H19.5968C19.8513 11.9147 19.7825 13.3506 19.3956 14.7161C19.0396 15.9717 18.3482 17.1065 17.3956 17.9986C16.5593 17.3461 15.7193 16.6986 14.8831 16.0461C15.2977 15.7664 15.6515 15.4059 15.9234 14.9862C16.1954 14.5665 16.3798 14.0962 16.4656 13.6036H12.1568C12.1556 12.5761 12.1568 11.5473 12.1568 10.5186Z" fill="#587DBD"/>
<path d="M5.09375 15.55C5.95792 14.8834 6.82167 14.2134 7.685 13.54C8.01901 14.5203 8.65426 15.3699 9.5 15.9675C10.0275 16.3404 10.6269 16.5992 11.26 16.7275C11.8838 16.8435 12.5237 16.8435 13.1475 16.7275C13.7695 16.6223 14.3626 16.3881 14.8888 16.04C15.725 16.6925 16.565 17.34 17.4012 17.9925C16.4861 18.8247 15.3705 19.4049 14.1637 19.6763C12.8318 19.9894 11.4437 19.9744 10.1188 19.6325C9.07088 19.3528 8.09209 18.8595 7.24375 18.1838C6.34583 17.4709 5.61244 16.5725 5.09375 15.55Z" fill="#319F43"/>
</g>
<defs>
<clipPath id="clip0_5570_86309">
<rect width="16" height="16" fill="white" transform="translate(4 4)"/>
</clipPath>
</defs>
</svg>
